<svg width="260" height="478" viewBox="0 0 260 478" fill="none" xmlns="http://www.w3.org/2000/svg">
<path d="M130 216.896C106.106 216.896 86.6667 197.457 86.6667 173.563C86.6667 149.669 106.106 130.23 130 130.23C153.894 130.23 173.333 149.669 173.333 173.563C173.333 197.457 153.894 216.896 130 216.896ZM130 390.69C153.894 390.69 173.333 410.129 173.333 434.023C173.333 457.917 153.894 477.356 130 477.356C106.106 477.356 86.6667 457.917 86.6667 434.023C86.6667 410.129 106.106 390.69 130 390.69ZM216.667 86.6667C192.772 86.6667 173.333 67.2277 173.333 43.3333C173.333 19.439 192.772 0 216.667 0C240.561 0 260 19.439 260 43.3333C260 67.2277 240.561 86.6667 216.667 86.6667ZM216.667 260.459C240.561 260.459 260 279.898 260 303.793C260 327.687 240.561 347.126 216.667 347.126C192.772 347.126 173.333 327.687 173.333 303.793C173.333 279.898 192.772 260.459 216.667 260.459ZM43.3333 86.6667C19.439 86.6667 0 67.2277 0 43.3333C0 19.439 19.439 0 43.3333 0C67.2277 0 86.6667 19.439 86.6667 43.3333C86.6667 67.2277 67.2277 86.6667 43.3333 86.6667ZM43.3333 260.459C67.2277 260.459 86.6667 279.898 86.6667 303.793C86.6667 327.687 67.2277 347.126 43.3333 347.126C19.439 347.126 0 327.687 0 303.793C0 279.898 19.439 260.459 43.3333 260.459Z" fill="black"/>
</svg>
